<svg xmlns="http://www.w3.org/2000/svg" xmlns:xlink="http://www.w3.org/1999/xlink" width="3524" zoomAndPan="magnify" viewBox="0 0 2643 864.749991" height="1153" preserveAspectRatio="xMidYMid meet" version="1.0"><defs><clipPath id="ec4acc5c62"><path d="M 359.675781 12.527344 L 477.835938 12.527344 L 477.835938 864.136719 L 359.675781 864.136719 Z M 359.675781 12.527344 " clip-rule="nonzero"/></clipPath><clipPath id="700e96d1d3"><path d="M 376.917969 12.527344 L 460.59375 12.527344 C 465.167969 12.527344 469.550781 14.34375 472.785156 17.578125 C 476.019531 20.8125 477.835938 25.199219 477.835938 29.769531 L 477.835938 846.757812 C 477.835938 851.332031 476.019531 855.71875 472.785156 858.953125 C 469.550781 862.1875 465.167969 864.003906 460.59375 864.003906 L 376.917969 864.003906 C 372.34375 864.003906 367.957031 862.1875 364.726562 858.953125 C 361.492188 855.71875 359.675781 851.332031 359.675781 846.757812 L 359.675781 29.769531 C 359.675781 25.199219 361.492188 20.8125 364.726562 17.578125 C 367.957031 14.34375 372.34375 12.527344 376.917969 12.527344 Z M 376.917969 12.527344 " clip-rule="nonzero"/></clipPath><clipPath id="9b44d9346d"><path d="M 0.675781 0.527344 L 118.835938 0.527344 L 118.835938 852.136719 L 0.675781 852.136719 Z M 0.675781 0.527344 " clip-rule="nonzero"/></clipPath><clipPath id="119aeb4b22"><path d="M 17.917969 0.527344 L 101.59375 0.527344 C 106.167969 0.527344 110.550781 2.34375 113.785156 5.578125 C 117.019531 8.8125 118.835938 13.199219 118.835938 17.769531 L 118.835938 834.757812 C 118.835938 839.332031 117.019531 843.71875 113.785156 846.953125 C 110.550781 850.1875 106.167969 852.003906 101.59375 852.003906 L 17.917969 852.003906 C 13.34375 852.003906 8.957031 850.1875 5.726562 846.953125 C 2.492188 843.71875 0.675781 839.332031 0.675781 834.757812 L 0.675781 17.769531 C 0.675781 13.199219 2.492188 8.8125 5.726562 5.578125 C 8.957031 2.34375 13.34375 0.527344 17.917969 0.527344 Z M 17.917969 0.527344 " clip-rule="nonzero"/></clipPath><clipPath id="884af82078"><rect x="0" width="119" y="0" height="853"/></clipPath><clipPath id="8d6734a0fe"><path d="M 539.167969 12.527344 L 657.332031 12.527344 L 657.332031 864.136719 L 539.167969 864.136719 Z M 539.167969 12.527344 " clip-rule="nonzero"/></clipPath><clipPath id="80274e6a1a"><path d="M 556.410156 12.527344 L 640.085938 12.527344 C 644.660156 12.527344 649.046875 14.34375 652.277344 17.578125 C 655.511719 20.8125 657.332031 25.199219 657.332031 29.769531 L 657.332031 846.757812 C 657.332031 851.332031 655.511719 855.71875 652.277344 858.953125 C 649.046875 862.1875 644.660156 864.003906 640.085938 864.003906 L 556.410156 864.003906 C 551.835938 864.003906 547.453125 862.1875 544.21875 858.953125 C 540.984375 855.71875 539.167969 851.332031 539.167969 846.757812 L 539.167969 29.769531 C 539.167969 25.199219 540.984375 20.8125 544.21875 17.578125 C 547.453125 14.34375 551.835938 12.527344 556.410156 12.527344 Z M 556.410156 12.527344 " clip-rule="nonzero"/></clipPath><clipPath id="2019254ec7"><path d="M 0.167969 0.527344 L 118.332031 0.527344 L 118.332031 852.136719 L 0.167969 852.136719 Z M 0.167969 0.527344 " clip-rule="nonzero"/></clipPath><clipPath id="45d3ac357a"><path d="M 17.410156 0.527344 L 101.085938 0.527344 C 105.660156 0.527344 110.046875 2.34375 113.277344 5.578125 C 116.511719 8.8125 118.332031 13.199219 118.332031 17.769531 L 118.332031 834.757812 C 118.332031 839.332031 116.511719 843.71875 113.277344 846.953125 C 110.046875 850.1875 105.660156 852.003906 101.085938 852.003906 L 17.410156 852.003906 C 12.835938 852.003906 8.453125 850.1875 5.21875 846.953125 C 1.984375 843.71875 0.167969 839.332031 0.167969 834.757812 L 0.167969 17.769531 C 0.167969 13.199219 1.984375 8.8125 5.21875 5.578125 C 8.453125 2.34375 12.835938 0.527344 17.410156 0.527344 Z M 17.410156 0.527344 " clip-rule="nonzero"/></clipPath><clipPath id="075b2d1644"><rect x="0" width="119" y="0" height="853"/></clipPath><clipPath id="825ee7604b"><path d="M 1985.21875 12.527344 L 2103.382812 12.527344 L 2103.382812 864.136719 L 1985.21875 864.136719 Z M 1985.21875 12.527344 " clip-rule="nonzero"/></clipPath><clipPath id="3c82cc10a5"><path d="M 2002.464844 12.527344 L 2086.136719 12.527344 C 2090.710938 12.527344 2095.097656 14.34375 2098.332031 17.578125 C 2101.566406 20.8125 2103.382812 25.199219 2103.382812 29.769531 L 2103.382812 846.757812 C 2103.382812 851.332031 2101.566406 855.71875 2098.332031 858.953125 C 2095.097656 862.1875 2090.710938 864.003906 2086.136719 864.003906 L 2002.464844 864.003906 C 1997.890625 864.003906 1993.503906 862.1875 1990.269531 858.953125 C 1987.035156 855.71875 1985.21875 851.332031 1985.21875 846.757812 L 1985.21875 29.769531 C 1985.21875 25.199219 1987.035156 20.8125 1990.269531 17.578125 C 1993.503906 14.34375 1997.890625 12.527344 2002.464844 12.527344 Z M 2002.464844 12.527344 " clip-rule="nonzero"/></clipPath><clipPath id="5bca83580c"><path d="M 0.21875 0.527344 L 118.382812 0.527344 L 118.382812 852.136719 L 0.21875 852.136719 Z M 0.21875 0.527344 " clip-rule="nonzero"/></clipPath><clipPath id="55b70afca6"><path d="M 17.464844 0.527344 L 101.136719 0.527344 C 105.710938 0.527344 110.097656 2.34375 113.332031 5.578125 C 116.566406 8.8125 118.382812 13.199219 118.382812 17.769531 L 118.382812 834.757812 C 118.382812 839.332031 116.566406 843.71875 113.332031 846.953125 C 110.097656 850.1875 105.710938 852.003906 101.136719 852.003906 L 17.464844 852.003906 C 12.890625 852.003906 8.503906 850.1875 5.269531 846.953125 C 2.035156 843.71875 0.21875 839.332031 0.21875 834.757812 L 0.21875 17.769531 C 0.21875 13.199219 2.035156 8.8125 5.269531 5.578125 C 8.503906 2.34375 12.890625 0.527344 17.464844 0.527344 Z M 17.464844 0.527344 " clip-rule="nonzero"/></clipPath><clipPath id="baecf8d6e6"><rect x="0" width="119" y="0" height="853"/></clipPath><clipPath id="45005a58dd"><path d="M 2164.710938 12.527344 L 2282.875 12.527344 L 2282.875 864.136719 L 2164.710938 864.136719 Z M 2164.710938 12.527344 " clip-rule="nonzero"/></clipPath><clipPath id="8f55dcd416"><path d="M 2181.957031 12.527344 L 2265.628906 12.527344 C 2270.203125 12.527344 2274.589844 14.34375 2277.824219 17.578125 C 2281.058594 20.8125 2282.875 25.199219 2282.875 29.769531 L 2282.875 846.757812 C 2282.875 851.332031 2281.058594 855.71875 2277.824219 858.953125 C 2274.589844 862.1875 2270.203125 864.003906 2265.628906 864.003906 L 2181.957031 864.003906 C 2177.382812 864.003906 2172.996094 862.1875 2169.761719 858.953125 C 2166.527344 855.71875 2164.710938 851.332031 2164.710938 846.757812 L 2164.710938 29.769531 C 2164.710938 25.199219 2166.527344 20.8125 2169.761719 17.578125 C 2172.996094 14.34375 2177.382812 12.527344 2181.957031 12.527344 Z M 2181.957031 12.527344 " clip-rule="nonzero"/></clipPath><clipPath id="5c37457391"><path d="M 0.710938 0.527344 L 118.875 0.527344 L 118.875 852.136719 L 0.710938 852.136719 Z M 0.710938 0.527344 " clip-rule="nonzero"/></clipPath><clipPath id="d393e7f3b6"><path d="M 17.957031 0.527344 L 101.628906 0.527344 C 106.203125 0.527344 110.589844 2.34375 113.824219 5.578125 C 117.058594 8.8125 118.875 13.199219 118.875 17.769531 L 118.875 834.757812 C 118.875 839.332031 117.058594 843.71875 113.824219 846.953125 C 110.589844 850.1875 106.203125 852.003906 101.628906 852.003906 L 17.957031 852.003906 C 13.382812 852.003906 8.996094 850.1875 5.761719 846.953125 C 2.527344 843.71875 0.710938 839.332031 0.710938 834.757812 L 0.710938 17.769531 C 0.710938 13.199219 2.527344 8.8125 5.761719 5.578125 C 8.996094 2.34375 13.382812 0.527344 17.957031 0.527344 Z M 17.957031 0.527344 " clip-rule="nonzero"/></clipPath><clipPath id="1e943c7fdd"><rect x="0" width="119" y="0" height="853"/></clipPath><clipPath id="425754dc92"><path d="M 2344.359375 169.203125 L 2462.519531 169.203125 L 2462.519531 707.402344 L 2344.359375 707.402344 Z M 2344.359375 169.203125 " clip-rule="nonzero"/></clipPath><clipPath id="cff2f3a585"><path d="M 2361.601562 169.203125 L 2445.277344 169.203125 C 2449.851562 169.203125 2454.234375 171.019531 2457.46875 174.253906 C 2460.703125 177.488281 2462.519531 181.875 2462.519531 186.445312 L 2462.519531 690.082031 C 2462.519531 694.65625 2460.703125 699.042969 2457.46875 702.277344 C 2454.234375 705.511719 2449.851562 707.328125 2445.277344 707.328125 L 2361.601562 707.328125 C 2357.027344 707.328125 2352.644531 705.511719 2349.410156 702.277344 C 2346.175781 699.042969 2344.359375 694.65625 2344.359375 690.082031 L 2344.359375 186.445312 C 2344.359375 181.875 2346.175781 177.488281 2349.410156 174.253906 C 2352.644531 171.019531 2357.027344 169.203125 2361.601562 169.203125 Z M 2361.601562 169.203125 " clip-rule="nonzero"/></clipPath><clipPath id="36bb6f2107"><path d="M 0.359375 0.203125 L 118.519531 0.203125 L 118.519531 538.402344 L 0.359375 538.402344 Z M 0.359375 0.203125 " clip-rule="nonzero"/></clipPath><clipPath id="54c2a0bdbf"><path d="M 17.601562 0.203125 L 101.277344 0.203125 C 105.851562 0.203125 110.234375 2.019531 113.46875 5.253906 C 116.703125 8.488281 118.519531 12.875 118.519531 17.445312 L 118.519531 521.082031 C 118.519531 525.65625 116.703125 530.042969 113.46875 533.277344 C 110.234375 536.511719 105.851562 538.328125 101.277344 538.328125 L 17.601562 538.328125 C 13.027344 538.328125 8.644531 536.511719 5.410156 533.277344 C 2.175781 530.042969 0.359375 525.65625 0.359375 521.082031 L 0.359375 17.445312 C 0.359375 12.875 2.175781 8.488281 5.410156 5.253906 C 8.644531 2.019531 13.027344 0.203125 17.601562 0.203125 Z M 17.601562 0.203125 " clip-rule="nonzero"/></clipPath><clipPath id="c0a7915681"><rect x="0" width="119" y="0" height="539"/></clipPath><clipPath id="bfb029831b"><path d="M 180.027344 169.203125 L 298.191406 169.203125 L 298.191406 707.402344 L 180.027344 707.402344 Z M 180.027344 169.203125 " clip-rule="nonzero"/></clipPath><clipPath id="3803549e41"><path d="M 197.273438 169.203125 L 280.945312 169.203125 C 285.519531 169.203125 289.90625 171.019531 293.140625 174.253906 C 296.375 177.488281 298.191406 181.875 298.191406 186.445312 L 298.191406 690.082031 C 298.191406 694.65625 296.375 699.042969 293.140625 702.277344 C 289.90625 705.511719 285.519531 707.328125 280.945312 707.328125 L 197.273438 707.328125 C 192.699219 707.328125 188.3125 705.511719 185.078125 702.277344 C 181.84375 699.042969 180.027344 694.65625 180.027344 690.082031 L 180.027344 186.445312 C 180.027344 181.875 181.84375 177.488281 185.078125 174.253906 C 188.3125 171.019531 192.699219 169.203125 197.273438 169.203125 Z M 197.273438 169.203125 " clip-rule="nonzero"/></clipPath><clipPath id="8842527baf"><path d="M 0.0273438 0.203125 L 118.191406 0.203125 L 118.191406 538.402344 L 0.0273438 538.402344 Z M 0.0273438 0.203125 " clip-rule="nonzero"/></clipPath><clipPath id="290e37b28f"><path d="M 17.273438 0.203125 L 100.945312 0.203125 C 105.519531 0.203125 109.90625 2.019531 113.140625 5.253906 C 116.375 8.488281 118.191406 12.875 118.191406 17.445312 L 118.191406 521.082031 C 118.191406 525.65625 116.375 530.042969 113.140625 533.277344 C 109.90625 536.511719 105.519531 538.328125 100.945312 538.328125 L 17.273438 538.328125 C 12.699219 538.328125 8.3125 536.511719 5.078125 533.277344 C 1.84375 530.042969 0.0273438 525.65625 0.0273438 521.082031 L 0.0273438 17.445312 C 0.0273438 12.875 1.84375 8.488281 5.078125 5.253906 C 8.3125 2.019531 12.699219 0.203125 17.273438 0.203125 Z M 17.273438 0.203125 " clip-rule="nonzero"/></clipPath><clipPath id="dbd987459b"><rect x="0" width="119" y="0" height="539"/></clipPath><clipPath id="1a0ccfc062"><path d="M 0.382812 244.191406 L 118.546875 244.191406 L 118.546875 632.378906 L 0.382812 632.378906 Z M 0.382812 244.191406 " clip-rule="nonzero"/></clipPath><clipPath id="ea1f9e934c"><path d="M 17.628906 244.191406 L 101.300781 244.191406 C 105.875 244.191406 110.261719 246.007812 113.496094 249.242188 C 116.730469 252.476562 118.546875 256.863281 118.546875 261.4375 L 118.546875 615.09375 C 118.546875 619.667969 116.730469 624.050781 113.496094 627.285156 C 110.261719 630.519531 105.875 632.335938 101.300781 632.335938 L 17.628906 632.335938 C 13.054688 632.335938 8.667969 630.519531 5.433594 627.285156 C 2.199219 624.050781 0.382812 619.667969 0.382812 615.09375 L 0.382812 261.4375 C 0.382812 256.863281 2.199219 252.476562 5.433594 249.242188 C 8.667969 246.007812 13.054688 244.191406 17.628906 244.191406 Z M 17.628906 244.191406 " clip-rule="nonzero"/></clipPath><clipPath id="30cef01de8"><path d="M 0.382812 0.191406 L 118.546875 0.191406 L 118.546875 388.378906 L 0.382812 388.378906 Z M 0.382812 0.191406 " clip-rule="nonzero"/></clipPath><clipPath id="6b7b1d5246"><path d="M 17.628906 0.191406 L 101.300781 0.191406 C 105.875 0.191406 110.261719 2.007812 113.496094 5.242188 C 116.730469 8.476562 118.546875 12.863281 118.546875 17.4375 L 118.546875 371.09375 C 118.546875 375.667969 116.730469 380.050781 113.496094 383.285156 C 110.261719 386.519531 105.875 388.335938 101.300781 388.335938 L 17.628906 388.335938 C 13.054688 388.335938 8.667969 386.519531 5.433594 383.285156 C 2.199219 380.050781 0.382812 375.667969 0.382812 371.09375 L 0.382812 17.4375 C 0.382812 12.863281 2.199219 8.476562 5.433594 5.242188 C 8.667969 2.007812 13.054688 0.191406 17.628906 0.191406 Z M 17.628906 0.191406 " clip-rule="nonzero"/></clipPath><clipPath id="d5dc2986fe"><rect x="0" width="119" y="0" height="389"/></clipPath><clipPath id="47cb180ce3"><path d="M 2524.003906 244.191406 L 2642.167969 244.191406 L 2642.167969 632.378906 L 2524.003906 632.378906 Z M 2524.003906 244.191406 " clip-rule="nonzero"/></clipPath><clipPath id="06327d6cdd"><path d="M 2541.25 244.191406 L 2624.921875 244.191406 C 2629.496094 244.191406 2633.882812 246.007812 2637.117188 249.242188 C 2640.351562 252.476562 2642.167969 256.863281 2642.167969 261.4375 L 2642.167969 615.09375 C 2642.167969 619.667969 2640.351562 624.050781 2637.117188 627.285156 C 2633.882812 630.519531 2629.496094 632.335938 2624.921875 632.335938 L 2541.25 632.335938 C 2536.675781 632.335938 2532.289062 630.519531 2529.054688 627.285156 C 2525.820312 624.050781 2524.003906 619.667969 2524.003906 615.09375 L 2524.003906 261.4375 C 2524.003906 256.863281 2525.820312 252.476562 2529.054688 249.242188 C 2532.289062 246.007812 2536.675781 244.191406 2541.25 244.191406 Z M 2541.25 244.191406 " clip-rule="nonzero"/></clipPath><clipPath id="8d95afc2f0"><path d="M 0.00390625 0.191406 L 118.167969 0.191406 L 118.167969 388.378906 L 0.00390625 388.378906 Z M 0.00390625 0.191406 " clip-rule="nonzero"/></clipPath><clipPath id="4d35a1931e"><path d="M 17.25 0.191406 L 100.921875 0.191406 C 105.496094 0.191406 109.882812 2.007812 113.117188 5.242188 C 116.351562 8.476562 118.167969 12.863281 118.167969 17.4375 L 118.167969 371.09375 C 118.167969 375.667969 116.351562 380.050781 113.117188 383.285156 C 109.882812 386.519531 105.496094 388.335938 100.921875 388.335938 L 17.25 388.335938 C 12.675781 388.335938 8.289062 386.519531 5.054688 383.285156 C 1.820312 380.050781 0.00390625 375.667969 0.00390625 371.09375 L 0.00390625 17.4375 C 0.00390625 12.863281 1.820312 8.476562 5.054688 5.242188 C 8.289062 2.007812 12.675781 0.191406 17.25 0.191406 Z M 17.25 0.191406 " clip-rule="nonzero"/></clipPath><clipPath id="4b12afd594"><rect x="0" width="119" y="0" height="389"/></clipPath><clipPath id="9a0377002e"><path d="M 723.695312 0 L 907.390625 0 L 907.390625 223.074219 L 723.695312 223.074219 Z M 723.695312 0 " clip-rule="nonzero"/></clipPath><clipPath id="1aa7019be5"><path d="M 737.941406 223.074219 L 893.394531 223.074219 C 901.261719 223.074219 907.640625 216.695312 907.640625 208.828125 L 907.640625 14.242188 C 907.640625 6.375 901.261719 -0.00390625 893.394531 -0.00390625 L 737.941406 -0.00390625 C 730.074219 -0.00390625 723.695312 6.375 723.695312 14.242188 L 723.695312 208.828125 C 723.695312 216.695312 730.074219 223.074219 737.941406 223.074219 Z M 737.941406 223.074219 " clip-rule="nonzero"/></clipPath><clipPath id="9b8473f1c4"><path d="M 40 0.00390625 L 184.390625 0.00390625 L 184.390625 13 L 40 13 Z M 40 0.00390625 " clip-rule="nonzero"/></clipPath><clipPath id="3c2384652e"><path d="M 14.941406 223.074219 L 170.394531 223.074219 C 178.261719 223.074219 184.640625 216.695312 184.640625 208.828125 L 184.640625 14.242188 C 184.640625 6.375 178.261719 -0.00390625 170.394531 -0.00390625 L 14.941406 -0.00390625 C 7.074219 -0.00390625 0.695312 6.375 0.695312 14.242188 L 0.695312 208.828125 C 0.695312 216.695312 7.074219 223.074219 14.941406 223.074219 Z M 14.941406 223.074219 " clip-rule="nonzero"/></clipPath><clipPath id="e9ad9ef1b8"><path d="M 0.695312 39 L 14 39 L 14 223.074219 L 0.695312 223.074219 Z M 0.695312 39 " clip-rule="nonzero"/></clipPath><clipPath id="d2e9406162"><path d="M 14.941406 223.074219 L 170.394531 223.074219 C 178.261719 223.074219 184.640625 216.695312 184.640625 208.828125 L 184.640625 14.242188 C 184.640625 6.375 178.261719 -0.00390625 170.394531 -0.00390625 L 14.941406 -0.00390625 C 7.074219 -0.00390625 0.695312 6.375 0.695312 14.242188 L 0.695312 208.828125 C 0.695312 216.695312 7.074219 223.074219 14.941406 223.074219 Z M 14.941406 223.074219 " clip-rule="nonzero"/></clipPath><clipPath id="566a95cbf9"><path d="M 0.695312 0.00390625 L 41 0.00390625 L 41 40 L 0.695312 40 Z M 0.695312 0.00390625 " clip-rule="nonzero"/></clipPath><clipPath id="195fc2355e"><path d="M 14.941406 223.074219 L 170.394531 223.074219 C 178.261719 223.074219 184.640625 216.695312 184.640625 208.828125 L 184.640625 14.242188 C 184.640625 6.375 178.261719 -0.00390625 170.394531 -0.00390625 L 14.941406 -0.00390625 C 7.074219 -0.00390625 0.695312 6.375 0.695312 14.242188 L 0.695312 208.828125 C 0.695312 216.695312 7.074219 223.074219 14.941406 223.074219 Z M 14.941406 223.074219 " clip-rule="nonzero"/></clipPath><clipPath id="e489c3f3de"><rect x="0" width="185" y="0" height="224"/></clipPath><clipPath id="9474e94699"><path d="M 1735.152344 0.00390625 L 1879 0.00390625 L 1879 13 L 1735.152344 13 Z M 1735.152344 0.00390625 " clip-rule="nonzero"/></clipPath><clipPath id="4ced11c958"><path d="M 1904.601562 0.00390625 L 1749.148438 0.00390625 C 1741.28125 0.00390625 1734.902344 6.378906 1734.902344 14.25 L 1734.902344 208.835938 C 1734.902344 216.703125 1741.28125 223.082031 1749.148438 223.082031 L 1904.601562 223.082031 C 1912.46875 223.082031 1918.847656 216.703125 1918.847656 208.835938 L 1918.847656 14.25 C 1918.847656 6.378906 1912.46875 0.00390625 1904.601562 0.00390625 Z M 1904.601562 0.00390625 " clip-rule="nonzero"/></clipPath><clipPath id="41348aca65"><path d="M 1905 39 L 1918.847656 39 L 1918.847656 223.4375 L 1905 223.4375 Z M 1905 39 " clip-rule="nonzero"/></clipPath><clipPath id="8ac768d01d"><path d="M 1904.601562 0.00390625 L 1749.148438 0.00390625 C 1741.28125 0.00390625 1734.902344 6.378906 1734.902344 14.25 L 1734.902344 208.835938 C 1734.902344 216.703125 1741.28125 223.082031 1749.148438 223.082031 L 1904.601562 223.082031 C 1912.46875 223.082031 1918.847656 216.703125 1918.847656 208.835938 L 1918.847656 14.25 C 1918.847656 6.378906 1912.46875 0.00390625 1904.601562 0.00390625 Z M 1904.601562 0.00390625 " clip-rule="nonzero"/></clipPath><clipPath id="724e09b7c8"><path d="M 1879 0.00390625 L 1918.847656 0.00390625 L 1918.847656 40 L 1879 40 Z M 1879 0.00390625 " clip-rule="nonzero"/></clipPath><clipPath id="c5eaba2f65"><path d="M 1904.601562 0.00390625 L 1749.148438 0.00390625 C 1741.28125 0.00390625 1734.902344 6.378906 1734.902344 14.25 L 1734.902344 208.835938 C 1734.902344 216.703125 1741.28125 223.082031 1749.148438 223.082031 L 1904.601562 223.082031 C 1912.46875 223.082031 1918.847656 216.703125 1918.847656 208.835938 L 1918.847656 14.25 C 1918.847656 6.378906 1912.46875 0.00390625 1904.601562 0.00390625 Z M 1904.601562 0.00390625 " clip-rule="nonzero"/></clipPath><clipPath id="e4bc493bca"><path d="M 763 851 L 907.390625 851 L 907.390625 864 L 763 864 Z M 763 851 " clip-rule="nonzero"/></clipPath><clipPath id="a46a8bff43"><path d="M 737.941406 864 L 893.394531 864 C 901.261719 864 907.640625 857.621094 907.640625 849.753906 L 907.640625 655.164062 C 907.640625 647.296875 901.261719 640.917969 893.394531 640.917969 L 737.941406 640.917969 C 730.074219 640.917969 723.695312 647.296875 723.695312 655.164062 L 723.695312 849.753906 C 723.695312 857.621094 730.074219 864 737.941406 864 Z M 737.941406 864 " clip-rule="nonzero"/></clipPath><clipPath id="ab039a53d7"><path d="M 723.695312 640.5625 L 737 640.5625 L 737 825 L 723.695312 825 Z M 723.695312 640.5625 " clip-rule="nonzero"/></clipPath><clipPath id="e215f13d5d"><path d="M 737.941406 864 L 893.394531 864 C 901.261719 864 907.640625 857.621094 907.640625 849.753906 L 907.640625 655.164062 C 907.640625 647.296875 901.261719 640.917969 893.394531 640.917969 L 737.941406 640.917969 C 730.074219 640.917969 723.695312 647.296875 723.695312 655.164062 L 723.695312 849.753906 C 723.695312 857.621094 730.074219 864 737.941406 864 Z M 737.941406 864 " clip-rule="nonzero"/></clipPath><clipPath id="511a29108b"><path d="M 723.695312 824 L 764 824 L 764 864 L 723.695312 864 Z M 723.695312 824 " clip-rule="nonzero"/></clipPath><clipPath id="2303d58917"><path d="M 737.941406 864 L 893.394531 864 C 901.261719 864 907.640625 857.621094 907.640625 849.753906 L 907.640625 655.164062 C 907.640625 647.296875 901.261719 640.917969 893.394531 640.917969 L 737.941406 640.917969 C 730.074219 640.917969 723.695312 647.296875 723.695312 655.164062 L 723.695312 849.753906 C 723.695312 857.621094 730.074219 864 737.941406 864 Z M 737.941406 864 " clip-rule="nonzero"/></clipPath><clipPath id="6ae3bb8bd4"><path d="M 1734.90625 640.5625 L 1918.601562 640.5625 L 1918.601562 864 L 1734.90625 864 Z M 1734.90625 640.5625 " clip-rule="nonzero"/></clipPath><clipPath id="93fb3b3a03"><path d="M 1749.152344 864 L 1904.605469 864 C 1912.472656 864 1918.851562 857.621094 1918.851562 849.753906 L 1918.851562 655.164062 C 1918.851562 647.296875 1912.472656 640.917969 1904.605469 640.917969 L 1749.152344 640.917969 C 1741.285156 640.917969 1734.90625 647.296875 1734.90625 655.164062 L 1734.90625 849.753906 C 1734.90625 857.621094 1741.285156 864 1749.152344 864 Z M 1749.152344 864 " clip-rule="nonzero"/></clipPath><clipPath id="0c81f2faae"><path d="M 0.90625 211 L 145 211 L 145 224 L 0.90625 224 Z M 0.90625 211 " clip-rule="nonzero"/></clipPath><clipPath id="55482220bd"><path d="M 15.152344 224 L 170.605469 224 C 178.472656 224 184.851562 217.621094 184.851562 209.753906 L 184.851562 15.164062 C 184.851562 7.296875 178.472656 0.917969 170.605469 0.917969 L 15.152344 0.917969 C 7.285156 0.917969 0.90625 7.296875 0.90625 15.164062 L 0.90625 209.753906 C 0.90625 217.621094 7.285156 224 15.152344 224 Z M 15.152344 224 " clip-rule="nonzero"/></clipPath><clipPath id="8ad0ef0660"><path d="M 171 0.855469 L 184.601562 0.855469 L 184.601562 185 L 171 185 Z M 171 0.855469 " clip-rule="nonzero"/></clipPath><clipPath id="57975af4f8"><path d="M 15.152344 224 L 170.605469 224 C 178.472656 224 184.851562 217.621094 184.851562 209.753906 L 184.851562 15.164062 C 184.851562 7.296875 178.472656 0.917969 170.605469 0.917969 L 15.152344 0.917969 C 7.285156 0.917969 0.90625 7.296875 0.90625 15.164062 L 0.90625 209.753906 C 0.90625 217.621094 7.285156 224 15.152344 224 Z M 15.152344 224 " clip-rule="nonzero"/></clipPath><clipPath id="a3d416ef23"><path d="M 145 184 L 184.601562 184 L 184.601562 224 L 145 224 Z M 145 184 " clip-rule="nonzero"/></clipPath><clipPath id="79a9cfbb28"><path d="M 15.152344 224 L 170.605469 224 C 178.472656 224 184.851562 217.621094 184.851562 209.753906 L 184.851562 15.164062 C 184.851562 7.296875 178.472656 0.917969 170.605469 0.917969 L 15.152344 0.917969 C 7.285156 0.917969 0.90625 7.296875 0.90625 15.164062 L 0.90625 209.753906 C 0.90625 217.621094 7.285156 224 15.152344 224 Z M 15.152344 224 " clip-rule="nonzero"/></clipPath><clipPath id="045eb2f575"><rect x="0" width="185" y="0" height="224"/></clipPath></defs><g clip-path="url(#ec4acc5c62)"><g clip-path="url(#700e96d1d3)"><g transform="matrix(1, 0, 0, 1, 359, 12)"><g clip-path="url(#884af82078)"><g clip-path="url(#9b44d9346d)"><g clip-path="url(#119aeb4b22)"><path fill="#f05928" d="M 0.675781 0.527344 L 118.835938 0.527344 L 118.835938 852.136719 L 0.675781 852.136719 Z M 0.675781 0.527344 " fill-opacity="1" fill-rule="nonzero"/></g></g></g></g></g></g><g clip-path="url(#8d6734a0fe)"><g clip-path="url(#80274e6a1a)"><g transform="matrix(1, 0, 0, 1, 539, 12)"><g clip-path="url(#075b2d1644)"><g clip-path="url(#2019254ec7)"><g clip-path="url(#45d3ac357a)"><path fill="#f05928" d="M 0.167969 0.527344 L 118.332031 0.527344 L 118.332031 852.136719 L 0.167969 852.136719 Z M 0.167969 0.527344 " fill-opacity="1" fill-rule="nonzero"/></g></g></g></g></g></g><g clip-path="url(#825ee7604b)"><g clip-path="url(#3c82cc10a5)"><g transform="matrix(1, 0, 0, 1, 1985, 12)"><g clip-path="url(#baecf8d6e6)"><g clip-path="url(#5bca83580c)"><g clip-path="url(#55b70afca6)"><path fill="#f05928" d="M 0.21875 0.527344 L 118.382812 0.527344 L 118.382812 852.136719 L 0.21875 852.136719 Z M 0.21875 0.527344 " fill-opacity="1" fill-rule="nonzero"/></g></g></g></g></g></g><g clip-path="url(#45005a58dd)"><g clip-path="url(#8f55dcd416)"><g transform="matrix(1, 0, 0, 1, 2164, 12)"><g clip-path="url(#1e943c7fdd)"><g clip-path="url(#5c37457391)"><g clip-path="url(#d393e7f3b6)"><path fill="#f05928" d="M 0.710938 0.527344 L 118.875 0.527344 L 118.875 852.136719 L 0.710938 852.136719 Z M 0.710938 0.527344 " fill-opacity="1" fill-rule="nonzero"/></g></g></g></g></g></g><g clip-path="url(#425754dc92)"><g clip-path="url(#cff2f3a585)"><g transform="matrix(1, 0, 0, 1, 2344, 169)"><g clip-path="url(#c0a7915681)"><g clip-path="url(#36bb6f2107)"><g clip-path="url(#54c2a0bdbf)"><path fill="#f05928" d="M 0.359375 0.203125 L 118.519531 0.203125 L 118.519531 538.402344 L 0.359375 538.402344 Z M 0.359375 0.203125 " fill-opacity="1" fill-rule="nonzero"/></g></g></g></g></g></g><g clip-path="url(#bfb029831b)"><g clip-path="url(#3803549e41)"><g transform="matrix(1, 0, 0, 1, 180, 169)"><g clip-path="url(#dbd987459b)"><g clip-path="url(#8842527baf)"><g clip-path="url(#290e37b28f)"><path fill="#f05928" d="M 0.0273438 0.203125 L 118.191406 0.203125 L 118.191406 538.402344 L 0.0273438 538.402344 Z M 0.0273438 0.203125 " fill-opacity="1" fill-rule="nonzero"/></g></g></g></g></g></g><g clip-path="url(#1a0ccfc062)"><g clip-path="url(#ea1f9e934c)"><g transform="matrix(1, 0, 0, 1, 0.000000000000000056, 244)"><g clip-path="url(#d5dc2986fe)"><g clip-path="url(#30cef01de8)"><g clip-path="url(#6b7b1d5246)"><path fill="#f05928" d="M 0.382812 0.191406 L 118.546875 0.191406 L 118.546875 388.378906 L 0.382812 388.378906 Z M 0.382812 0.191406 " fill-opacity="1" fill-rule="nonzero"/></g></g></g></g></g></g><g clip-path="url(#47cb180ce3)"><g clip-path="url(#06327d6cdd)"><g transform="matrix(1, 0, 0, 1, 2524, 244)"><g clip-path="url(#4b12afd594)"><g clip-path="url(#8d95afc2f0)"><g clip-path="url(#4d35a1931e)"><path fill="#f05928" d="M 0.00390625 0.191406 L 118.167969 0.191406 L 118.167969 388.378906 L 0.00390625 388.378906 Z M 0.00390625 0.191406 " fill-opacity="1" fill-rule="nonzero"/></g></g></g></g></g></g><g clip-path="url(#9a0377002e)"><g clip-path="url(#1aa7019be5)"><g transform="matrix(1, 0, 0, 1, 723, -0.000000000000041795)"><g clip-path="url(#e489c3f3de)"><g clip-path="url(#9b8473f1c4)"><g clip-path="url(#3c2384652e)"><path fill="#ffffff" d="M 40.542969 0.00390625 L 40.542969 12.996094 L 395.71875 12.996094 L 395.71875 0.00390625 Z M 40.542969 0.00390625 " fill-opacity="1" fill-rule="nonzero"/></g></g><g clip-path="url(#e9ad9ef1b8)"><g clip-path="url(#d2e9406162)"><path fill="#ffffff" d="M 0.695312 39.851562 L 0.695312 395.027344 L 13.6875 395.027344 L 13.6875 39.851562 Z M 0.695312 39.851562 " fill-opacity="1" fill-rule="nonzero"/></g></g><g clip-path="url(#566a95cbf9)"><g clip-path="url(#195fc2355e)"><path fill="#ffffff" d="M 13.6875 12.996094 L 13.6875 39.851562 L 0.695312 39.851562 L 0.695312 0.00390625 L 40.542969 0.00390625 L 40.542969 12.996094 Z M 13.6875 12.996094 " fill-opacity="1" fill-rule="nonzero"/></g></g></g></g></g></g><g clip-path="url(#9474e94699)"><g clip-path="url(#4ced11c958)"><path fill="#ffffff" d="M 1879 0.00390625 L 1879 12.996094 L 1523.824219 12.996094 L 1523.824219 0.00390625 Z M 1879 0.00390625 " fill-opacity="1" fill-rule="nonzero"/></g></g><g clip-path="url(#41348aca65)"><g clip-path="url(#8ac768d01d)"><path fill="#ffffff" d="M 1918.847656 39.851562 L 1918.847656 395.027344 L 1905.855469 395.027344 L 1905.855469 39.851562 Z M 1918.847656 39.851562 " fill-opacity="1" fill-rule="nonzero"/></g></g><g clip-path="url(#724e09b7c8)"><g clip-path="url(#c5eaba2f65)"><path fill="#ffffff" d="M 1905.855469 12.996094 L 1905.855469 39.851562 L 1918.847656 39.851562 L 1918.847656 0.00390625 L 1879 0.00390625 L 1879 12.996094 Z M 1905.855469 12.996094 " fill-opacity="1" fill-rule="nonzero"/></g></g><g clip-path="url(#e4bc493bca)"><g clip-path="url(#a46a8bff43)"><path fill="#ffffff" d="M 763.542969 864 L 763.542969 851.003906 L 1118.71875 851.003906 L 1118.71875 864 Z M 763.542969 864 " fill-opacity="1" fill-rule="nonzero"/></g></g><g clip-path="url(#ab039a53d7)"><g clip-path="url(#e215f13d5d)"><path fill="#ffffff" d="M 723.695312 824.148438 L 723.695312 468.972656 L 736.6875 468.972656 L 736.6875 824.148438 Z M 723.695312 824.148438 " fill-opacity="1" fill-rule="nonzero"/></g></g><g clip-path="url(#511a29108b)"><g clip-path="url(#2303d58917)"><path fill="#ffffff" d="M 736.6875 851.003906 L 736.6875 824.148438 L 723.695312 824.148438 L 723.695312 864 L 763.542969 864 L 763.542969 851.003906 Z M 736.6875 851.003906 " fill-opacity="1" fill-rule="nonzero"/></g></g><g clip-path="url(#6ae3bb8bd4)"><g clip-path="url(#93fb3b3a03)"><g transform="matrix(1, 0, 0, 1, 1734, 640)"><g clip-path="url(#045eb2f575)"><g clip-path="url(#0c81f2faae)"><g clip-path="url(#55482220bd)"><path fill="#ffffff" d="M 145 224 L 145 211.003906 L -210.175781 211.003906 L -210.175781 224 Z M 145 224 " fill-opacity="1" fill-rule="nonzero"/></g></g><g clip-path="url(#8ad0ef0660)"><g clip-path="url(#57975af4f8)"><path fill="#ffffff" d="M 184.847656 184.148438 L 184.847656 -171.027344 L 171.855469 -171.027344 L 171.855469 184.148438 Z M 184.847656 184.148438 " fill-opacity="1" fill-rule="nonzero"/></g></g><g clip-path="url(#a3d416ef23)"><g clip-path="url(#79a9cfbb28)"><path fill="#ffffff" d="M 171.855469 211.003906 L 171.855469 184.148438 L 184.847656 184.148438 L 184.847656 224 L 145 224 L 145 211.003906 Z M 171.855469 211.003906 " fill-opacity="1" fill-rule="nonzero"/></g></g></g></g></g></g></svg>