<svg xmlns="http://www.w3.org/2000/svg" xmlns:xlink="http://www.w3.org/1999/xlink" width="1241" zoomAndPan="magnify" viewBox="0 0 930.75 1196.250008" height="1595" preserveAspectRatio="xMidYMid meet" version="1.0"><defs><clipPath id="725dd00f8a"><path d="M 707.148438 0 L 930.332031 0 L 930.332031 183.636719 L 707.148438 183.636719 Z M 707.148438 0 " clip-rule="nonzero"/></clipPath><clipPath id="74caaf681a"><path d="M 707.148438 14.242188 L 707.148438 169.640625 C 707.148438 177.507812 713.527344 183.882812 721.390625 183.882812 L 915.914062 183.882812 C 923.777344 183.882812 930.152344 177.507812 930.152344 169.640625 L 930.152344 14.242188 C 930.152344 6.375 923.777344 0 915.914062 0 L 721.390625 0 C 713.527344 0 707.148438 6.375 707.148438 14.242188 Z M 707.148438 14.242188 " clip-rule="nonzero"/></clipPath><clipPath id="a81d54bccc"><path d="M 210 39 L 223.144531 39 L 223.144531 183.636719 L 210 183.636719 Z M 210 39 " clip-rule="nonzero"/></clipPath><clipPath id="692abdb001"><path d="M 0.148438 14.242188 L 0.148438 169.640625 C 0.148438 177.507812 6.527344 183.882812 14.390625 183.882812 L 208.914062 183.882812 C 216.777344 183.882812 223.152344 177.507812 223.152344 169.640625 L 223.152344 14.242188 C 223.152344 6.375 216.777344 0 208.914062 0 L 14.390625 0 C 6.527344 0 0.148438 6.375 0.148438 14.242188 Z M 0.148438 14.242188 " clip-rule="nonzero"/></clipPath><clipPath id="2c0061c2c7"><path d="M 0.148438 0 L 184 0 L 184 13 L 0.148438 13 Z M 0.148438 0 " clip-rule="nonzero"/></clipPath><clipPath id="f007b50e0a"><path d="M 0.148438 14.242188 L 0.148438 169.640625 C 0.148438 177.507812 6.527344 183.882812 14.390625 183.882812 L 208.914062 183.882812 C 216.777344 183.882812 223.152344 177.507812 223.152344 169.640625 L 223.152344 14.242188 C 223.152344 6.375 216.777344 0 208.914062 0 L 14.390625 0 C 6.527344 0 0.148438 6.375 0.148438 14.242188 Z M 0.148438 14.242188 " clip-rule="nonzero"/></clipPath><clipPath id="456a477e41"><path d="M 183 0 L 223.144531 0 L 223.144531 40 L 183 40 Z M 183 0 " clip-rule="nonzero"/></clipPath><clipPath id="703da64a60"><path d="M 0.148438 14.242188 L 0.148438 169.640625 C 0.148438 177.507812 6.527344 183.882812 14.390625 183.882812 L 208.914062 183.882812 C 216.777344 183.882812 223.152344 177.507812 223.152344 169.640625 L 223.152344 14.242188 C 223.152344 6.375 216.777344 0 208.914062 0 L 14.390625 0 C 6.527344 0 0.148438 6.375 0.148438 14.242188 Z M 0.148438 14.242188 " clip-rule="nonzero"/></clipPath><clipPath id="0029f732a6"><rect x="0" width="224" y="0" height="184"/></clipPath><clipPath id="667b8c1c90"><path d="M 0.167969 39 L 14 39 L 14 183.636719 L 0.167969 183.636719 Z M 0.167969 39 " clip-rule="nonzero"/></clipPath><clipPath id="e530571125"><path d="M 0.167969 14.242188 L 0.167969 169.640625 C 0.167969 177.507812 6.542969 183.882812 14.40625 183.882812 L 208.929688 183.882812 C 216.792969 183.882812 223.171875 177.507812 223.171875 169.640625 L 223.171875 14.242188 C 223.171875 6.375 216.792969 0 208.929688 0 L 14.40625 0 C 6.542969 0 0.167969 6.375 0.167969 14.242188 Z M 0.167969 14.242188 " clip-rule="nonzero"/></clipPath><clipPath id="41965ea2ea"><path d="M 40 0 L 223.527344 0 L 223.527344 13 L 40 13 Z M 40 0 " clip-rule="nonzero"/></clipPath><clipPath id="529642c9ff"><path d="M 0.167969 14.242188 L 0.167969 169.640625 C 0.167969 177.507812 6.542969 183.882812 14.40625 183.882812 L 208.929688 183.882812 C 216.792969 183.882812 223.171875 177.507812 223.171875 169.640625 L 223.171875 14.242188 C 223.171875 6.375 216.792969 0 208.929688 0 L 14.40625 0 C 6.542969 0 0.167969 6.375 0.167969 14.242188 Z M 0.167969 14.242188 " clip-rule="nonzero"/></clipPath><clipPath id="e998bd7b19"><path d="M 0.167969 0 L 41 0 L 41 40 L 0.167969 40 Z M 0.167969 0 " clip-rule="nonzero"/></clipPath><clipPath id="9c0c7799f0"><path d="M 0.167969 14.242188 L 0.167969 169.640625 C 0.167969 177.507812 6.542969 183.882812 14.40625 183.882812 L 208.929688 183.882812 C 216.792969 183.882812 223.171875 177.507812 223.171875 169.640625 L 223.171875 14.242188 C 223.171875 6.375 216.792969 0 208.929688 0 L 14.40625 0 C 6.542969 0 0.167969 6.375 0.167969 14.242188 Z M 0.167969 14.242188 " clip-rule="nonzero"/></clipPath><clipPath id="ed16f34776"><path d="M 0.167969 1011.117188 L 223.164062 1011.117188 L 223.164062 1194.75 L 0.167969 1194.75 Z M 0.167969 1011.117188 " clip-rule="nonzero"/></clipPath><clipPath id="36d3584cf7"><path d="M 223.164062 1180.507812 L 223.164062 1025.109375 C 223.164062 1017.242188 216.789062 1010.867188 208.921875 1010.867188 L 14.402344 1010.867188 C 6.535156 1010.867188 0.160156 1017.242188 0.160156 1025.109375 L 0.160156 1180.507812 C 0.160156 1188.375 6.535156 1194.75 14.402344 1194.75 L 208.921875 1194.75 C 216.789062 1194.75 223.164062 1188.375 223.164062 1180.507812 Z M 223.164062 1180.507812 " clip-rule="nonzero"/></clipPath><clipPath id="e5c5bf3288"><path d="M 0.167969 0.117188 L 14 0.117188 L 14 144 L 0.167969 144 Z M 0.167969 0.117188 " clip-rule="nonzero"/></clipPath><clipPath id="eb31819108"><path d="M 223.164062 169.507812 L 223.164062 14.109375 C 223.164062 6.242188 216.789062 -0.132812 208.921875 -0.132812 L 14.402344 -0.132812 C 6.535156 -0.132812 0.160156 6.242188 0.160156 14.109375 L 0.160156 169.507812 C 0.160156 177.375 6.535156 183.75 14.402344 183.75 L 208.921875 183.75 C 216.789062 183.75 223.164062 177.375 223.164062 169.507812 Z M 223.164062 169.507812 " clip-rule="nonzero"/></clipPath><clipPath id="1a30d9f03d"><path d="M 40 170 L 223.164062 170 L 223.164062 183.75 L 40 183.75 Z M 40 170 " clip-rule="nonzero"/></clipPath><clipPath id="c2d44e05fd"><path d="M 223.164062 169.507812 L 223.164062 14.109375 C 223.164062 6.242188 216.789062 -0.132812 208.921875 -0.132812 L 14.402344 -0.132812 C 6.535156 -0.132812 0.160156 6.242188 0.160156 14.109375 L 0.160156 169.507812 C 0.160156 177.375 6.535156 183.75 14.402344 183.75 L 208.921875 183.75 C 216.789062 183.75 223.164062 177.375 223.164062 169.507812 Z M 223.164062 169.507812 " clip-rule="nonzero"/></clipPath><clipPath id="3b9014f13f"><path d="M 0.167969 143 L 41 143 L 41 183.75 L 0.167969 183.75 Z M 0.167969 143 " clip-rule="nonzero"/></clipPath><clipPath id="5bfda2ceaa"><path d="M 223.164062 169.507812 L 223.164062 14.109375 C 223.164062 6.242188 216.789062 -0.132812 208.921875 -0.132812 L 14.402344 -0.132812 C 6.535156 -0.132812 0.160156 6.242188 0.160156 14.109375 L 0.160156 169.507812 C 0.160156 177.375 6.535156 183.75 14.402344 183.75 L 208.921875 183.75 C 216.789062 183.75 223.164062 177.375 223.164062 169.507812 Z M 223.164062 169.507812 " clip-rule="nonzero"/></clipPath><clipPath id="b7e7ee57d7"><rect x="0" width="224" y="0" height="184"/></clipPath><clipPath id="f547c74690"><path d="M 917 1011.117188 L 930.144531 1011.117188 L 930.144531 1155 L 917 1155 Z M 917 1011.117188 " clip-rule="nonzero"/></clipPath><clipPath id="26f0d6601c"><path d="M 930.144531 1180.507812 L 930.144531 1025.109375 C 930.144531 1017.242188 923.769531 1010.867188 915.90625 1010.867188 L 721.382812 1010.867188 C 713.519531 1010.867188 707.144531 1017.242188 707.144531 1025.109375 L 707.144531 1180.507812 C 707.144531 1188.375 713.519531 1194.75 721.382812 1194.75 L 915.90625 1194.75 C 923.769531 1194.75 930.144531 1188.375 930.144531 1180.507812 Z M 930.144531 1180.507812 " clip-rule="nonzero"/></clipPath><clipPath id="7d4ef5be4e"><path d="M 707 1181 L 891 1181 L 891 1194.75 L 707 1194.75 Z M 707 1181 " clip-rule="nonzero"/></clipPath><clipPath id="ee7fd3108c"><path d="M 930.144531 1180.507812 L 930.144531 1025.109375 C 930.144531 1017.242188 923.769531 1010.867188 915.90625 1010.867188 L 721.382812 1010.867188 C 713.519531 1010.867188 707.144531 1017.242188 707.144531 1025.109375 L 707.144531 1180.507812 C 707.144531 1188.375 713.519531 1194.75 721.382812 1194.75 L 915.90625 1194.75 C 923.769531 1194.75 930.144531 1188.375 930.144531 1180.507812 Z M 930.144531 1180.507812 " clip-rule="nonzero"/></clipPath><clipPath id="50e295c6a9"><path d="M 890 1154 L 930.144531 1154 L 930.144531 1194.75 L 890 1194.75 Z M 890 1154 " clip-rule="nonzero"/></clipPath><clipPath id="3d780adb96"><path d="M 930.144531 1180.507812 L 930.144531 1025.109375 C 930.144531 1017.242188 923.769531 1010.867188 915.90625 1010.867188 L 721.382812 1010.867188 C 713.519531 1010.867188 707.144531 1017.242188 707.144531 1025.109375 L 707.144531 1180.507812 C 707.144531 1188.375 713.519531 1194.75 721.382812 1194.75 L 915.90625 1194.75 C 923.769531 1194.75 930.144531 1188.375 930.144531 1180.507812 Z M 930.144531 1180.507812 " clip-rule="nonzero"/></clipPath></defs><g clip-path="url(#725dd00f8a)"><g clip-path="url(#74caaf681a)"><g transform="matrix(1, 0, 0, 1, 707, -0.000000000000155425)"><g clip-path="url(#0029f732a6)"><g clip-path="url(#a81d54bccc)"><g clip-path="url(#692abdb001)"><path fill="#ffffff" d="M 223.144531 39.835938 L 210.15625 39.835938 L 210.15625 394.890625 L 223.144531 394.890625 Z M 223.144531 39.835938 " fill-opacity="1" fill-rule="nonzero"/></g></g><g clip-path="url(#2c0061c2c7)"><g clip-path="url(#f007b50e0a)"><path fill="#ffffff" d="M 183.3125 0 L -171.746094 0 L -171.746094 12.988281 L 183.3125 12.988281 Z M 183.3125 0 " fill-opacity="1" fill-rule="nonzero"/></g></g><g clip-path="url(#456a477e41)"><g clip-path="url(#703da64a60)"><path fill="#ffffff" d="M 210.15625 12.988281 L 183.3125 12.988281 L 183.3125 0 L 223.144531 0 L 223.144531 39.835938 L 210.15625 39.835938 Z M 210.15625 12.988281 " fill-opacity="1" fill-rule="nonzero"/></g></g></g></g></g></g><g clip-path="url(#667b8c1c90)"><g clip-path="url(#e530571125)"><path fill="#ffffff" d="M 0.167969 39.835938 L 13.15625 39.835938 L 13.15625 394.890625 L 0.167969 394.890625 Z M 0.167969 39.835938 " fill-opacity="1" fill-rule="nonzero"/></g></g><g clip-path="url(#41965ea2ea)"><g clip-path="url(#529642c9ff)"><path fill="#ffffff" d="M 40.003906 0 L 395.058594 0 L 395.058594 12.988281 L 40.003906 12.988281 Z M 40.003906 0 " fill-opacity="1" fill-rule="nonzero"/></g></g><g clip-path="url(#e998bd7b19)"><g clip-path="url(#9c0c7799f0)"><path fill="#ffffff" d="M 13.15625 12.988281 L 40.003906 12.988281 L 40.003906 0 L 0.167969 0 L 0.167969 39.835938 L 13.15625 39.835938 Z M 13.15625 12.988281 " fill-opacity="1" fill-rule="nonzero"/></g></g><g clip-path="url(#ed16f34776)"><g clip-path="url(#36d3584cf7)"><g transform="matrix(1, 0, 0, 1, 0.000000000000000028, 1011)"><g clip-path="url(#b7e7ee57d7)"><g clip-path="url(#e5c5bf3288)"><g clip-path="url(#eb31819108)"><path fill="#ffffff" d="M 0.167969 143.914062 L 13.15625 143.914062 L 13.15625 -211.140625 L 0.167969 -211.140625 Z M 0.167969 143.914062 " fill-opacity="1" fill-rule="nonzero"/></g></g><g clip-path="url(#1a30d9f03d)"><g clip-path="url(#c2d44e05fd)"><path fill="#ffffff" d="M 40.003906 183.75 L 395.058594 183.75 L 395.058594 170.761719 L 40.003906 170.761719 Z M 40.003906 183.75 " fill-opacity="1" fill-rule="nonzero"/></g></g><g clip-path="url(#3b9014f13f)"><g clip-path="url(#5bfda2ceaa)"><path fill="#ffffff" d="M 13.15625 170.761719 L 40.003906 170.761719 L 40.003906 183.75 L 0.167969 183.75 L 0.167969 143.914062 L 13.15625 143.914062 Z M 13.15625 170.761719 " fill-opacity="1" fill-rule="nonzero"/></g></g></g></g></g></g><g clip-path="url(#f547c74690)"><g clip-path="url(#26f0d6601c)"><path fill="#ffffff" d="M 930.144531 1154.914062 L 917.15625 1154.914062 L 917.15625 799.859375 L 930.144531 799.859375 Z M 930.144531 1154.914062 " fill-opacity="1" fill-rule="nonzero"/></g></g><g clip-path="url(#7d4ef5be4e)"><g clip-path="url(#ee7fd3108c)"><path fill="#ffffff" d="M 890.3125 1194.75 L 535.253906 1194.75 L 535.253906 1181.761719 L 890.3125 1181.761719 Z M 890.3125 1194.75 " fill-opacity="1" fill-rule="nonzero"/></g></g><g clip-path="url(#50e295c6a9)"><g clip-path="url(#3d780adb96)"><path fill="#ffffff" d="M 917.15625 1181.761719 L 890.3125 1181.761719 L 890.3125 1194.75 L 930.144531 1194.75 L 930.144531 1154.914062 L 917.15625 1154.914062 Z M 917.15625 1181.761719 " fill-opacity="1" fill-rule="nonzero"/></g></g></svg>