<svg xmlns="http://www.w3.org/2000/svg" xmlns:xlink="http://www.w3.org/1999/xlink" width="19" zoomAndPan="magnify" viewBox="0 0 14.25 1055.999974" height="1408" preserveAspectRatio="xMidYMid meet" version="1.0"><defs><clipPath id="acbd09bcef"><path d="M 0 26.398438 L 13.539062 26.398438 L 13.539062 448 L 0 448 Z M 0 26.398438 " clip-rule="nonzero"/></clipPath><clipPath id="55bc8c976e"><path d="M 0 829 L 13.539062 829 L 13.539062 1029.597656 L 0 1029.597656 Z M 0 829 " clip-rule="nonzero"/></clipPath><clipPath id="2219addeac"><path d="M 0 466 L 13.539062 466 L 13.539062 811 L 0 811 Z M 0 466 " clip-rule="nonzero"/></clipPath></defs><g clip-path="url(#acbd09bcef)"><path stroke-linecap="butt" transform="matrix(0, -0.7125, 0.7125, 0, -0.00223961, 440.253395)" fill="none" stroke-linejoin="miter" d="M -0.000718167 9.498758 L 580.849087 9.498758 " stroke="#ef5928" stroke-width="19" stroke-opacity="1" stroke-miterlimit="4"/></g><g clip-path="url(#55bc8c976e)"><path stroke-linecap="butt" transform="matrix(0, -0.7125, 0.7125, 0, -0.00355511, 1029.218433)" fill="none" stroke-linejoin="miter" d="M -0.000445171 9.500604 L 270.180487 9.500604 " stroke="#ef5928" stroke-width="19" stroke-opacity="1" stroke-miterlimit="4"/></g><g clip-path="url(#2219addeac)"><path stroke-linecap="butt" transform="matrix(0, -0.7125, 0.7125, 0, -0.00510979, 803.469213)" fill="none" stroke-linejoin="miter" d="M 0.000649294 9.497304 L 463.125669 9.497304 " stroke="#ef5928" stroke-width="19" stroke-opacity="1" stroke-miterlimit="4"/></g></svg>