<svg xmlns="http://www.w3.org/2000/svg" xmlns:xlink="http://www.w3.org/1999/xlink" width="733" zoomAndPan="magnify" viewBox="0 0 549.75 107.999999" height="144" preserveAspectRatio="xMidYMid meet" version="1.0"><defs><clipPath id="20f022af6e"><path d="M 0 8 L 3 8 L 3 39.007812 L 0 39.007812 Z M 0 8 " clip-rule="nonzero"/></clipPath><clipPath id="5ff962f83b"><path d="M 0 14.269531 L 0 24.933594 C 0 32.800781 6.378906 39.175781 14.242188 39.175781 L 33.238281 39.175781 C 41.105469 39.175781 47.480469 32.800781 47.480469 24.933594 L 47.480469 14.269531 C 47.480469 6.402344 41.105469 0.0234375 33.238281 0.0234375 L 14.242188 0.0234375 C 6.378906 0.0234375 0 6.402344 0 14.269531 Z M 0 14.269531 " clip-rule="nonzero"/></clipPath><clipPath id="e8382a40f4"><path d="M 8 0.0234375 L 47.230469 0.0234375 L 47.230469 3 L 8 3 Z M 8 0.0234375 " clip-rule="nonzero"/></clipPath><clipPath id="9d61bc42de"><path d="M 0 14.269531 L 0 24.933594 C 0 32.800781 6.378906 39.175781 14.242188 39.175781 L 33.238281 39.175781 C 41.105469 39.175781 47.480469 32.800781 47.480469 24.933594 L 47.480469 14.269531 C 47.480469 6.402344 41.105469 0.0234375 33.238281 0.0234375 L 14.242188 0.0234375 C 6.378906 0.0234375 0 6.402344 0 14.269531 Z M 0 14.269531 " clip-rule="nonzero"/></clipPath><clipPath id="a96d3b8a99"><path d="M 0 0.0234375 L 9 0.0234375 L 9 9 L 0 9 Z M 0 0.0234375 " clip-rule="nonzero"/></clipPath><clipPath id="043663e9ad"><path d="M 0 14.269531 L 0 24.933594 C 0 32.800781 6.378906 39.175781 14.242188 39.175781 L 33.238281 39.175781 C 41.105469 39.175781 47.480469 32.800781 47.480469 24.933594 L 47.480469 14.269531 C 47.480469 6.402344 41.105469 0.0234375 33.238281 0.0234375 L 14.242188 0.0234375 C 6.378906 0.0234375 0 6.402344 0 14.269531 Z M 0 14.269531 " clip-rule="nonzero"/></clipPath><clipPath id="d7cec66d66"><path d="M 0 58.800781 L 47.230469 58.800781 L 47.230469 97.785156 L 0 97.785156 Z M 0 58.800781 " clip-rule="nonzero"/></clipPath><clipPath id="a80f0472b1"><path d="M 0 73.046875 L 0 83.710938 C 0 91.578125 6.378906 97.953125 14.242188 97.953125 L 33.238281 97.953125 C 41.105469 97.953125 47.480469 91.578125 47.480469 83.710938 L 47.480469 73.046875 C 47.480469 65.179688 41.105469 58.800781 33.238281 58.800781 L 14.242188 58.800781 C 6.378906 58.800781 0 65.179688 0 73.046875 Z M 0 73.046875 " clip-rule="nonzero"/></clipPath><clipPath id="d595ddd2f3"><path d="M 0 0.800781 L 3 0.800781 L 3 32 L 0 32 Z M 0 0.800781 " clip-rule="nonzero"/></clipPath><clipPath id="4f7b31a487"><path d="M 0 15.046875 L 0 25.710938 C 0 33.578125 6.378906 39.953125 14.242188 39.953125 L 33.238281 39.953125 C 41.105469 39.953125 47.480469 33.578125 47.480469 25.710938 L 47.480469 15.046875 C 47.480469 7.179688 41.105469 0.800781 33.238281 0.800781 L 14.242188 0.800781 C 6.378906 0.800781 0 7.179688 0 15.046875 Z M 0 15.046875 " clip-rule="nonzero"/></clipPath><clipPath id="cbe1779024"><path d="M 8 37 L 47.230469 37 L 47.230469 39.785156 L 8 39.785156 Z M 8 37 " clip-rule="nonzero"/></clipPath><clipPath id="1211f16811"><path d="M 0 15.046875 L 0 25.710938 C 0 33.578125 6.378906 39.953125 14.242188 39.953125 L 33.238281 39.953125 C 41.105469 39.953125 47.480469 33.578125 47.480469 25.710938 L 47.480469 15.046875 C 47.480469 7.179688 41.105469 0.800781 33.238281 0.800781 L 14.242188 0.800781 C 6.378906 0.800781 0 7.179688 0 15.046875 Z M 0 15.046875 " clip-rule="nonzero"/></clipPath><clipPath id="0981cc2a50"><path d="M 0 31 L 9 31 L 9 39.785156 L 0 39.785156 Z M 0 31 " clip-rule="nonzero"/></clipPath><clipPath id="2efcfc8298"><path d="M 0 15.046875 L 0 25.710938 C 0 33.578125 6.378906 39.953125 14.242188 39.953125 L 33.238281 39.953125 C 41.105469 39.953125 47.480469 33.578125 47.480469 25.710938 L 47.480469 15.046875 C 47.480469 7.179688 41.105469 0.800781 33.238281 0.800781 L 14.242188 0.800781 C 6.378906 0.800781 0 7.179688 0 15.046875 Z M 0 15.046875 " clip-rule="nonzero"/></clipPath><clipPath id="85f83c81af"><rect x="0" width="48" y="0" height="40"/></clipPath><clipPath id="dacb5ace1e"><path d="M 501.574219 9.835938 L 548.804688 9.835938 L 548.804688 48.820312 L 501.574219 48.820312 Z M 501.574219 9.835938 " clip-rule="nonzero"/></clipPath><clipPath id="fdeb2946e6"><path d="M 501.574219 24.082031 L 501.574219 34.746094 C 501.574219 42.613281 507.953125 48.988281 515.820312 48.988281 L 534.8125 48.988281 C 542.679688 48.988281 549.058594 42.613281 549.058594 34.746094 L 549.058594 24.082031 C 549.058594 16.214844 542.679688 9.835938 534.8125 9.835938 L 515.820312 9.835938 C 507.953125 9.835938 501.574219 16.214844 501.574219 24.082031 Z M 501.574219 24.082031 " clip-rule="nonzero"/></clipPath><clipPath id="ee0e655045"><path d="M 45 9 L 47.804688 9 L 47.804688 39.820312 L 45 39.820312 Z M 45 9 " clip-rule="nonzero"/></clipPath><clipPath id="8636f966bc"><path d="M 0.574219 15.082031 L 0.574219 25.746094 C 0.574219 33.613281 6.953125 39.988281 14.820312 39.988281 L 33.8125 39.988281 C 41.679688 39.988281 48.058594 33.613281 48.058594 25.746094 L 48.058594 15.082031 C 48.058594 7.214844 41.679688 0.835938 33.8125 0.835938 L 14.820312 0.835938 C 6.953125 0.835938 0.574219 7.214844 0.574219 15.082031 Z M 0.574219 15.082031 " clip-rule="nonzero"/></clipPath><clipPath id="7ea814b4bd"><path d="M 0.574219 0.835938 L 40 0.835938 L 40 4 L 0.574219 4 Z M 0.574219 0.835938 " clip-rule="nonzero"/></clipPath><clipPath id="d77e299a8a"><path d="M 0.574219 15.082031 L 0.574219 25.746094 C 0.574219 33.613281 6.953125 39.988281 14.820312 39.988281 L 33.8125 39.988281 C 41.679688 39.988281 48.058594 33.613281 48.058594 25.746094 L 48.058594 15.082031 C 48.058594 7.214844 41.679688 0.835938 33.8125 0.835938 L 14.820312 0.835938 C 6.953125 0.835938 0.574219 7.214844 0.574219 15.082031 Z M 0.574219 15.082031 " clip-rule="nonzero"/></clipPath><clipPath id="fb1513b8c1"><path d="M 39 0.835938 L 47.804688 0.835938 L 47.804688 10 L 39 10 Z M 39 0.835938 " clip-rule="nonzero"/></clipPath><clipPath id="9f8738a289"><path d="M 0.574219 15.082031 L 0.574219 25.746094 C 0.574219 33.613281 6.953125 39.988281 14.820312 39.988281 L 33.8125 39.988281 C 41.679688 39.988281 48.058594 33.613281 48.058594 25.746094 L 48.058594 15.082031 C 48.058594 7.214844 41.679688 0.835938 33.8125 0.835938 L 14.820312 0.835938 C 6.953125 0.835938 0.574219 7.214844 0.574219 15.082031 Z M 0.574219 15.082031 " clip-rule="nonzero"/></clipPath><clipPath id="ddfe44690f"><rect x="0" width="48" y="0" height="40"/></clipPath><clipPath id="fc259055b3"><path d="M 501.574219 68.613281 L 548.804688 68.613281 L 548.804688 107.597656 L 501.574219 107.597656 Z M 501.574219 68.613281 " clip-rule="nonzero"/></clipPath><clipPath id="cf2a5fbe49"><path d="M 501.574219 82.855469 L 501.574219 93.523438 C 501.574219 101.390625 507.953125 107.765625 515.820312 107.765625 L 534.8125 107.765625 C 542.679688 107.765625 549.058594 101.390625 549.058594 93.523438 L 549.058594 82.855469 C 549.058594 74.992188 542.679688 68.613281 534.8125 68.613281 L 515.820312 68.613281 C 507.953125 68.613281 501.574219 74.992188 501.574219 82.855469 Z M 501.574219 82.855469 " clip-rule="nonzero"/></clipPath><clipPath id="15489ce72c"><path d="M 45 0.613281 L 47.804688 0.613281 L 47.804688 32 L 45 32 Z M 45 0.613281 " clip-rule="nonzero"/></clipPath><clipPath id="c50d62da67"><path d="M 0.574219 14.855469 L 0.574219 25.523438 C 0.574219 33.390625 6.953125 39.765625 14.820312 39.765625 L 33.8125 39.765625 C 41.679688 39.765625 48.058594 33.390625 48.058594 25.523438 L 48.058594 14.855469 C 48.058594 6.992188 41.679688 0.613281 33.8125 0.613281 L 14.820312 0.613281 C 6.953125 0.613281 0.574219 6.992188 0.574219 14.855469 Z M 0.574219 14.855469 " clip-rule="nonzero"/></clipPath><clipPath id="3b303005c2"><path d="M 0.574219 37 L 40 37 L 40 39.597656 L 0.574219 39.597656 Z M 0.574219 37 " clip-rule="nonzero"/></clipPath><clipPath id="e884cffe2a"><path d="M 0.574219 14.855469 L 0.574219 25.523438 C 0.574219 33.390625 6.953125 39.765625 14.820312 39.765625 L 33.8125 39.765625 C 41.679688 39.765625 48.058594 33.390625 48.058594 25.523438 L 48.058594 14.855469 C 48.058594 6.992188 41.679688 0.613281 33.8125 0.613281 L 14.820312 0.613281 C 6.953125 0.613281 0.574219 6.992188 0.574219 14.855469 Z M 0.574219 14.855469 " clip-rule="nonzero"/></clipPath><clipPath id="2a529ee66d"><path d="M 39 31 L 47.804688 31 L 47.804688 39.597656 L 39 39.597656 Z M 39 31 " clip-rule="nonzero"/></clipPath><clipPath id="b763ba937f"><path d="M 0.574219 14.855469 L 0.574219 25.523438 C 0.574219 33.390625 6.953125 39.765625 14.820312 39.765625 L 33.8125 39.765625 C 41.679688 39.765625 48.058594 33.390625 48.058594 25.523438 L 48.058594 14.855469 C 48.058594 6.992188 41.679688 0.613281 33.8125 0.613281 L 14.820312 0.613281 C 6.953125 0.613281 0.574219 6.992188 0.574219 14.855469 Z M 0.574219 14.855469 " clip-rule="nonzero"/></clipPath><clipPath id="ba6ee21375"><rect x="0" width="48" y="0" height="40"/></clipPath></defs><g clip-path="url(#20f022af6e)"><g clip-path="url(#5ff962f83b)"><path fill="#ffffff" d="M 0 8.472656 L 2.753906 8.472656 L 2.753906 83.785156 L 0 83.785156 Z M 0 8.472656 " fill-opacity="1" fill-rule="nonzero"/></g></g><g clip-path="url(#e8382a40f4)"><g clip-path="url(#9d61bc42de)"><path fill="#ffffff" d="M 8.449219 0.0234375 L 83.757812 0.0234375 L 83.757812 2.78125 L 8.449219 2.78125 Z M 8.449219 0.0234375 " fill-opacity="1" fill-rule="nonzero"/></g></g><g clip-path="url(#a96d3b8a99)"><g clip-path="url(#043663e9ad)"><path fill="#ffffff" d="M 2.753906 2.78125 L 8.449219 2.78125 L 8.449219 0.0234375 L 0 0.0234375 L 0 8.472656 L 2.753906 8.472656 Z M 2.753906 2.78125 " fill-opacity="1" fill-rule="nonzero"/></g></g><g clip-path="url(#d7cec66d66)"><g clip-path="url(#a80f0472b1)"><g transform="matrix(1, 0, 0, 1, 0, 58)"><g clip-path="url(#85f83c81af)"><g clip-path="url(#d595ddd2f3)"><g clip-path="url(#4f7b31a487)"><path fill="#ffffff" d="M 0 31.5 L 2.753906 31.5 L 2.753906 -43.8125 L 0 -43.8125 Z M 0 31.5 " fill-opacity="1" fill-rule="nonzero"/></g></g><g clip-path="url(#cbe1779024)"><g clip-path="url(#1211f16811)"><path fill="#ffffff" d="M 8.449219 39.949219 L 83.757812 39.949219 L 83.757812 37.191406 L 8.449219 37.191406 Z M 8.449219 39.949219 " fill-opacity="1" fill-rule="nonzero"/></g></g><g clip-path="url(#0981cc2a50)"><g clip-path="url(#2efcfc8298)"><path fill="#ffffff" d="M 2.753906 37.191406 L 8.449219 37.191406 L 8.449219 39.949219 L 0 39.949219 L 0 31.5 L 2.753906 31.5 Z M 2.753906 37.191406 " fill-opacity="1" fill-rule="nonzero"/></g></g></g></g></g></g><g clip-path="url(#dacb5ace1e)"><g clip-path="url(#fdeb2946e6)"><g transform="matrix(1, 0, 0, 1, 501, 9)"><g clip-path="url(#ddfe44690f)"><g clip-path="url(#ee0e655045)"><g clip-path="url(#8636f966bc)"><path fill="#ffffff" d="M 48.050781 9.285156 L 45.292969 9.285156 L 45.292969 84.59375 L 48.050781 84.59375 Z M 48.050781 9.285156 " fill-opacity="1" fill-rule="nonzero"/></g></g><g clip-path="url(#7ea814b4bd)"><g clip-path="url(#d77e299a8a)"><path fill="#ffffff" d="M 39.601562 0.835938 L -35.707031 0.835938 L -35.707031 3.59375 L 39.601562 3.59375 Z M 39.601562 0.835938 " fill-opacity="1" fill-rule="nonzero"/></g></g><g clip-path="url(#fb1513b8c1)"><g clip-path="url(#9f8738a289)"><path fill="#ffffff" d="M 45.292969 3.59375 L 39.601562 3.59375 L 39.601562 0.835938 L 48.050781 0.835938 L 48.050781 9.285156 L 45.292969 9.285156 Z M 45.292969 3.59375 " fill-opacity="1" fill-rule="nonzero"/></g></g></g></g></g></g><g clip-path="url(#fc259055b3)"><g clip-path="url(#cf2a5fbe49)"><g transform="matrix(1, 0, 0, 1, 501, 68)"><g clip-path="url(#ba6ee21375)"><g clip-path="url(#15489ce72c)"><g clip-path="url(#c50d62da67)"><path fill="#ffffff" d="M 48.050781 31.3125 L 45.292969 31.3125 L 45.292969 -44 L 48.050781 -44 Z M 48.050781 31.3125 " fill-opacity="1" fill-rule="nonzero"/></g></g><g clip-path="url(#3b303005c2)"><g clip-path="url(#e884cffe2a)"><path fill="#ffffff" d="M 39.601562 39.761719 L -35.707031 39.761719 L -35.707031 37.003906 L 39.601562 37.003906 Z M 39.601562 39.761719 " fill-opacity="1" fill-rule="nonzero"/></g></g><g clip-path="url(#2a529ee66d)"><g clip-path="url(#b763ba937f)"><path fill="#ffffff" d="M 45.292969 37.003906 L 39.601562 37.003906 L 39.601562 39.761719 L 48.050781 39.761719 L 48.050781 31.3125 L 45.292969 31.3125 Z M 45.292969 37.003906 " fill-opacity="1" fill-rule="nonzero"/></g></g></g></g></g></g></svg>